<?xml version="1.0" standalone="no"?>
<!DOCTYPE svg PUBLIC "-//W3C//DTD SVG 20010904//EN"
 "http://www.w3.org/TR/2001/REC-SVG-20010904/DTD/svg10.dtd">
<svg version="1.0" xmlns="http://www.w3.org/2000/svg"
 width="1127.000000pt" height="1127.000000pt" viewBox="0 0 1127.000000 1127.000000"
 preserveAspectRatio="xMidYMid meet">
<metadata>
Created by potrace 1.11, written by Peter Selinger 2001-2013
</metadata>
<g transform="translate(0.000000,1127.000000) scale(0.100000,-0.100000)"
fill="#000000" stroke="none">
<path d="M5600 10049 c-18 -8 -21 -12 -11 -18 14 -9 71 8 71 21 0 11 -29 9
-60 -3z"/>
<path d="M5468 10024 c-21 -7 -86 -20 -145 -29 -146 -21 -344 -60 -368 -72
-86 -45 -105 -53 -119 -53 -28 0 -259 -118 -317 -162 -139 -106 -241 -202
-284 -268 -12 -19 -53 -69 -89 -110 -37 -41 -78 -100 -93 -130 -14 -30 -36
-71 -48 -90 -39 -63 -154 -328 -181 -417 -55 -182 -54 -176 -43 -301 14 -167
35 -298 79 -492 12 -52 25 -113 30 -135 8 -40 23 -102 55 -225 20 -77 19 -175
-1 -204 -18 -26 -18 -80 -1 -94 14 -12 47 -8 83 10 24 11 56 -4 111 -56 18
-16 36 -26 40 -22 10 10 5 78 -23 289 -19 141 -24 215 -20 295 5 114 24 221
46 262 8 14 15 52 15 85 1 33 7 70 13 82 7 12 12 29 12 37 0 9 4 24 9 34 6 9
13 34 16 54 3 21 12 44 20 52 8 8 27 36 43 62 41 70 56 68 81 -9 11 -35 17
-74 14 -87 -5 -20 -4 -22 13 -15 10 4 31 10 46 12 15 3 35 14 44 24 23 25 43
24 79 -5 24 -19 34 -22 52 -13 30 13 34 29 23 87 -9 48 -63 164 -81 176 -15 9
-10 71 6 78 8 3 15 11 15 19 0 37 134 142 240 188 89 39 92 40 106 28 9 -8 11
-16 4 -29 -25 -46 37 -18 85 38 38 45 57 53 133 57 37 2 101 13 142 26 44 13
108 24 155 25 116 4 135 8 196 36 30 14 90 35 134 48 44 12 88 26 97 31 9 5
52 9 95 9 43 0 94 4 114 8 20 5 67 6 105 3 59 -5 76 -12 112 -40 23 -19 42
-40 42 -46 0 -7 7 -18 15 -25 8 -7 13 -16 10 -20 -7 -11 51 -33 64 -25 6 3 20
8 32 10 27 5 83 -52 87 -90 2 -15 24 -66 48 -113 25 -47 42 -92 39 -100 -11
-29 7 -113 26 -120 10 -4 36 -32 59 -62 22 -29 44 -56 48 -59 7 -6 21 -26 50
-75 9 -16 27 -40 40 -54 47 -52 90 -163 106 -272 9 -58 20 -127 26 -155 6 -27
14 -72 19 -100 5 -27 16 -81 24 -120 8 -38 18 -109 22 -156 l6 -85 29 4 c16 2
34 10 40 17 18 22 22 119 6 156 -12 29 -12 37 0 59 8 14 19 39 25 55 l11 30
19 -25 c11 -14 31 -37 44 -53 l23 -27 7 40 c4 22 11 40 16 40 19 0 8 143 -12
172 -11 14 -19 31 -19 37 0 6 -14 27 -32 47 -26 29 -29 38 -17 44 15 9 16 116
4 355 -3 61 -7 180 -9 265 -6 225 -35 350 -121 515 -25 48 -45 92 -45 97 0 6
-11 20 -23 32 -13 12 -28 29 -33 37 -13 20 -70 59 -88 59 -8 0 -25 13 -38 29
-13 16 -43 38 -68 50 -25 12 -56 28 -70 36 -14 9 -38 20 -53 25 -27 10 -28 10
-10 37 9 16 25 36 35 46 12 12 17 26 13 40 -15 53 -28 77 -43 77 -8 0 -23 6
-31 14 -9 8 -39 20 -66 26 -28 7 -64 16 -81 21 -17 5 -40 9 -53 9 -12 0 -24 7
-27 15 -5 11 -23 15 -74 15 -49 0 -71 4 -81 16 -9 11 -24 14 -48 11 -46 -5
-153 13 -166 30 -5 6 -29 19 -52 27 -108 40 -128 48 -133 55 -13 18 -69 32
-88 22 -29 -15 -211 -8 -222 9 -11 18 -38 20 -82 4z m-1438 -2680 c0 -8 -4
-12 -10 -9 -5 3 -10 10 -10 16 0 5 5 9 10 9 6 0 10 -7 10 -16z"/>
<path d="M6380 8313 c-8 -3 -22 -14 -32 -23 -17 -15 -68 -28 -233 -59 -145
-27 -176 -38 -210 -71 -19 -19 -37 -42 -41 -52 -3 -10 -14 -18 -24 -18 -16 0
-18 -5 -13 -36 l6 -35 -39 6 -39 6 25 -20 25 -19 -28 -8 c-33 -8 -42 -27 -66
-134 -21 -97 -18 -130 14 -130 14 0 29 9 35 20 12 22 82 70 102 70 13 0 119
112 112 119 -6 7 -88 -22 -96 -33 -4 -6 -10 -8 -13 -4 -11 10 23 78 39 78 9 0
16 6 16 14 0 8 14 26 30 39 17 14 30 30 30 35 0 9 20 20 85 45 51 20 84 25
220 33 61 3 115 10 122 16 12 9 84 6 168 -7 56 -9 84 12 67 49 -6 15 -20 29
-29 33 -10 4 -32 17 -49 30 -32 24 -132 64 -156 62 -7 0 -20 -3 -28 -6z"/>
<path d="M4935 8003 c-48 -5 -169 -34 -180 -43 -16 -13 -103 -23 -122 -15 -27
12 -63 5 -94 -17 -73 -54 -89 -126 -26 -113 18 4 41 13 53 20 11 7 52 15 90
17 38 3 116 17 174 33 114 30 91 30 310 -2 19 -3 38 -10 42 -17 4 -6 10 -7 14
-3 4 4 0 15 -8 24 -9 10 -20 31 -25 47 -6 19 -22 36 -44 47 -34 17 -129 28
-184 22z"/>
<path d="M6284 7975 c11 -8 27 -15 37 -15 9 0 19 -7 23 -15 4 -12 -6 -15 -64
-15 -135 0 -323 -76 -407 -165 -46 -48 -42 -93 3 -48 10 10 25 22 34 28 10 5
42 30 71 54 l54 43 15 -22 c8 -13 29 -38 47 -56 26 -29 38 -34 76 -34 55 0 83
21 101 75 8 22 21 41 29 43 20 4 40 -51 24 -67 -9 -9 -8 -14 3 -21 12 -8 12
-10 -4 -10 -11 0 -17 -2 -15 -4 2 -2 39 0 82 4 58 7 85 15 110 34 19 14 48 31
65 37 18 6 32 17 32 24 0 28 -46 83 -79 95 -59 22 -184 50 -221 50 -33 -1 -34
-2 -16 -15z m-126 -112 c6 -19 -35 -16 -42 3 -4 11 0 15 16 12 12 -2 23 -9 26
-15z"/>
<path d="M5278 7776 c-36 -9 -52 -26 -26 -26 6 0 9 -2 7 -4 -3 -3 -38 4 -79
15 -103 27 -113 26 -105 -10 6 -29 6 -29 -37 -30 -74 0 -190 -30 -254 -66 -76
-43 -100 -45 -56 -5 17 16 32 32 32 35 0 14 -36 1 -84 -31 -58 -38 -73 -59
-56 -79 7 -8 0 -16 -25 -28 -19 -9 -35 -24 -35 -33 0 -13 11 -15 78 -10 128 8
152 18 152 62 0 11 9 29 21 39 20 19 21 18 57 -24 36 -42 40 -44 77 -37 87 15
101 24 115 69 18 57 25 63 54 43 14 -9 34 -16 45 -16 11 0 22 -4 25 -9 3 -5
15 -7 25 -4 10 3 29 -1 41 -7 35 -19 45 3 16 31 -34 32 -33 42 10 63 20 9 34
20 30 23 -3 3 2 12 12 19 27 20 3 32 -40 20z m-311 -103 c3 -7 -3 -9 -16 -6
-12 3 -21 10 -21 15 0 13 32 6 37 -9z m-297 -87 c0 -2 -7 -7 -16 -10 -8 -3
-12 -2 -9 4 6 10 25 14 25 6z"/>
<path d="M6300 7640 c-30 -10 -68 -21 -84 -25 -23 -5 -27 -8 -15 -16 37 -23
171 9 177 44 4 21 -8 21 -78 -3z"/>
<path d="M5080 7454 c-36 -19 -96 -41 -135 -50 -118 -27 -127 -32 -60 -33 84
-1 235 44 235 71 0 4 6 8 13 8 8 0 22 9 32 20 18 19 17 20 -1 19 -10 -1 -48
-17 -84 -35z"/>
<path d="M7081 7368 c0 -36 -2 -75 -6 -89 -3 -13 -2 -37 3 -53 l8 -29 19 29
c10 16 29 40 42 54 28 30 31 55 6 42 -37 -18 -47 -9 -56 47 -10 75 -16 75 -16
-1z"/>
<path d="M7271 7296 c-14 -14 -30 -26 -36 -26 -11 0 -27 -26 -38 -61 -3 -9 -1
-21 5 -27 8 -8 20 0 40 26 57 71 80 142 29 88z"/>
<path d="M7082 7125 c0 -53 2 -62 8 -38 4 17 4 49 0 70 -6 32 -8 26 -8 -32z"/>
<path d="M6025 7150 c-16 -18 -27 -21 -60 -16 -209 31 -227 30 -267 -20 -10
-12 -35 -29 -56 -37 -40 -16 -49 -15 -148 14 -59 18 -145 -12 -187 -63 -26
-32 -28 -40 -16 -54 17 -21 63 -15 154 21 l70 28 45 -18 c71 -28 124 -30 157
-7 22 16 51 21 143 26 128 7 169 13 188 28 13 11 15 57 3 96 l-6 24 -20 -22z"/>
<path d="M4180 7111 c0 -20 17 -37 27 -28 7 8 -7 47 -18 47 -5 0 -9 -9 -9 -19z"/>
<path d="M7077 6984 c-3 -18 0 -24 14 -24 22 0 26 35 5 43 -9 4 -16 -3 -19
-19z"/>
<path d="M6791 6963 c0 -7 -7 -13 -15 -13 -10 0 -14 -10 -12 -33 3 -36 22 -77
35 -77 13 0 32 26 35 47 2 10 13 19 24 21 12 2 22 8 22 14 0 7 -15 9 -39 5
-37 -5 -40 -3 -44 22 -2 14 -5 20 -6 14z"/>
<path d="M6400 6856 c0 -9 5 -16 10 -16 6 0 10 4 10 9 0 6 -4 13 -10 16 -5 3
-10 -1 -10 -9z"/>
<path d="M6000 6798 c0 -4 -18 -8 -39 -8 -22 0 -43 -4 -46 -10 -3 -5 -16 -10
-28 -10 -32 -1 -69 -32 -61 -53 8 -21 22 -22 44 -2 13 12 24 12 54 4 27 -8 42
-7 49 0 17 17 45 13 68 -10 14 -14 28 -19 44 -15 18 5 29 -1 44 -20 12 -15 21
-33 21 -40 0 -42 124 24 136 72 3 13 15 29 25 35 26 14 24 27 -4 22 -24 -5
-126 8 -239 31 -38 7 -68 9 -68 4z"/>
<path d="M5340 6691 c-30 -10 -77 -29 -105 -43 -27 -14 -68 -31 -90 -38 -76
-24 -79 -40 -12 -87 64 -46 84 -47 118 -10 16 17 29 39 29 48 0 20 26 43 39
35 6 -4 18 6 28 21 24 38 34 44 61 38 12 -3 37 2 55 11 l32 17 -35 13 c-46 16
-55 16 -120 -5z"/>
<path d="M5950 6575 c-7 -8 -28 -15 -47 -15 -19 0 -48 -7 -65 -16 -16 -9 -59
-17 -95 -19 -62 -4 -82 -9 -72 -20 3 -2 45 0 95 5 113 12 208 40 212 63 4 21
-11 22 -28 2z"/>
<path d="M6900 6565 c0 -8 -4 -15 -9 -15 -5 0 -16 -15 -25 -33 -17 -37 -63
-87 -80 -87 -23 -1 -56 -39 -56 -65 0 -14 -4 -24 -9 -20 -6 3 -27 -9 -47 -27
-24 -22 -39 -29 -42 -20 -2 6 -10 12 -18 12 -27 0 -57 37 -52 64 3 16 0 27
-10 31 -20 8 -20 7 -12 -55 7 -51 3 -81 -7 -52 -6 16 -33 16 -33 -1 0 -7 -13
-26 -29 -41 -18 -18 -32 -43 -36 -67 -4 -22 -11 -39 -16 -39 -5 0 -15 -16 -23
-35 -8 -19 -22 -38 -31 -41 -8 -3 -15 -11 -15 -18 0 -14 -68 -89 -92 -102 -9
-5 -41 -32 -70 -60 -29 -28 -78 -64 -108 -79 -30 -15 -66 -36 -79 -46 -13 -11
-32 -19 -41 -19 -10 0 -23 -7 -30 -15 -6 -8 -15 -14 -18 -13 -4 1 -29 -5 -57
-14 -56 -18 -261 -23 -355 -9 -85 13 -209 49 -225 65 -8 8 -28 17 -45 21 -16
4 -30 10 -30 15 0 4 -18 10 -39 14 -22 3 -46 12 -53 19 -7 7 -35 18 -63 25
-27 7 -63 20 -79 28 -16 8 -37 14 -46 14 -10 0 -23 7 -30 15 -9 11 -17 12 -31
4 -15 -7 -19 -6 -19 6 0 20 -16 19 -24 -2 -4 -10 -1 -22 7 -28 7 -5 16 -18 20
-27 3 -10 11 -18 16 -18 6 0 44 -41 85 -91 63 -75 74 -94 70 -117 -4 -21 2
-37 25 -66 17 -21 31 -42 31 -45 0 -4 17 -15 38 -26 20 -11 40 -24 43 -29 4
-5 25 -10 48 -12 44 -4 91 -29 91 -48 0 -6 -5 -4 -10 4 -5 8 -10 11 -10 5 0
-5 5 -17 10 -25 6 -10 10 -11 10 -2 0 6 7 12 16 12 11 0 14 -5 10 -16 -3 -9 5
-30 20 -50 16 -20 24 -42 21 -53 -3 -13 1 -21 13 -24 10 -3 20 -15 22 -28 2
-18 9 -23 26 -22 12 2 22 -2 22 -8 0 -15 81 -99 95 -99 7 0 20 -9 30 -20 10
-11 31 -20 46 -20 19 0 34 -8 45 -24 8 -14 21 -23 28 -20 8 3 16 -2 19 -10 13
-34 102 -56 169 -42 45 10 92 0 82 -16 -5 -7 1 -9 20 -4 15 4 26 2 26 -4 0 -5
9 -10 21 -10 15 0 19 -5 15 -15 -3 -8 -2 -15 1 -15 7 0 84 34 115 51 10 5 27
9 37 9 11 0 23 5 26 10 3 6 29 10 57 10 45 0 50 -2 45 -20 -3 -11 -1 -20 3
-20 5 0 12 -9 15 -20 9 -29 -17 -62 -195 -248 -143 -151 -241 -279 -271 -354
-6 -15 -23 -35 -38 -45 -50 -32 -88 -85 -94 -131 -5 -38 -55 -117 -142 -224
-19 -23 -34 -16 -69 33 -42 59 -182 176 -249 207 -43 19 -59 33 -64 52 -3 14
-29 61 -58 105 -99 152 -102 160 -104 260 -2 94 -10 163 -36 305 -19 111 -19
140 1 140 11 0 13 6 9 19 -3 11 -7 51 -9 89 -2 38 -6 74 -9 79 -8 13 -36 95
-40 119 -17 95 -73 304 -82 304 -6 0 -23 -25 -38 -56 -15 -30 -47 -76 -71
-102 -23 -26 -73 -94 -111 -152 -133 -206 -133 -206 -199 -241 -120 -64 -242
-142 -277 -179 -19 -20 -73 -56 -119 -79 l-84 -42 -129 3 c-123 3 -129 2 -147
-20 -10 -12 -21 -41 -25 -65 -11 -65 -21 -76 -103 -114 -42 -19 -96 -43 -118
-54 -23 -11 -66 -28 -95 -38 -30 -10 -116 -48 -192 -85 -75 -36 -168 -76 -205
-87 -37 -11 -98 -34 -137 -50 -45 -19 -87 -29 -119 -29 -122 0 -234 -131 -286
-336 -28 -108 -51 -335 -48 -475 l3 -117 -32 -44 c-55 -77 -90 -261 -77 -408
4 -46 2 -105 -6 -148 -6 -38 -12 -128 -13 -199 -2 -120 -4 -136 -44 -258 -58
-181 -71 -237 -79 -340 -4 -49 -13 -103 -21 -118 -17 -33 -103 -119 -155 -154
-25 -17 -73 -79 -148 -194 -126 -192 -150 -240 -184 -376 -58 -229 -165 -671
-170 -703 -4 -22 -29 -63 -67 -110 -49 -62 -146 -199 -182 -257 -7 -11 658
-13 3783 -13 l3790 0 0 33 c0 21 14 54 43 97 24 36 97 162 161 280 65 118 124
221 131 229 25 26 46 -30 65 -181 17 -125 50 -276 91 -416 l13 -42 993 0 993
0 0 116 c0 152 -15 213 -190 769 -76 239 -194 565 -253 695 -18 41 -44 113
-56 160 -13 47 -36 126 -51 175 -74 236 -120 411 -120 450 0 62 -27 183 -51
229 -21 40 -45 72 -152 201 -86 102 -88 107 -70 185 8 36 17 131 20 211 7 176
-6 244 -76 424 -58 147 -66 175 -85 296 -15 94 -73 277 -120 381 -41 91 -85
125 -181 142 -22 4 -74 20 -115 36 -118 45 -374 136 -500 176 -63 20 -126 43
-140 50 -14 8 -65 29 -115 48 -261 98 -346 133 -411 173 -39 24 -77 43 -83 43
-17 0 -173 68 -345 150 -82 39 -187 87 -235 106 -47 20 -115 57 -151 84 -36
26 -73 52 -84 57 -68 37 -255 216 -316 303 -21 30 -64 80 -97 111 -49 48 -62
67 -81 127 -12 38 -28 74 -35 79 -10 9 -271 103 -283 103 -3 0 -9 -12 -15 -27
l-10 -26 -15 21 c-27 39 -28 112 -4 208 13 49 29 94 36 100 8 6 11 13 8 17 -3
3 -1 13 4 24 14 27 32 87 32 107 0 13 -5 17 -20 13 -25 -6 -27 11 -2 21 22 9
26 28 7 36 -9 3 -15 -1 -15 -9z m-333 -287 c-3 -8 -6 -5 -6 6 -1 11 2 17 5 13
3 -3 4 -12 1 -19z m-1142 -998 c3 -5 -3 -10 -15 -10 -12 0 -18 5 -15 10 3 6
10 10 15 10 5 0 12 -4 15 -10z m231 -1817 c-7 -17 -8 -17 -17 0 -12 21 -2 44
13 29 6 -6 8 -19 4 -29z m-319 -1438 c84 -42 44 -134 -58 -135 -40 0 -63 19
-53 44 4 11 1 16 -10 16 -26 0 -19 46 10 69 31 25 69 27 111 6z m-39 -1913 c3
-9 -3 -13 -19 -10 -12 1 -24 9 -27 16 -3 9 3 13 19 10 12 -1 24 -9 27 -16z"/>
<path d="M5254 1958 c1 -25 5 -28 35 -28 30 0 33 2 27 23 -3 12 -6 25 -6 28 0
3 -13 6 -28 5 -25 -1 -29 -5 -28 -28z"/>
<path d="M5445 6501 c-3 -8 -3 -16 -1 -19 8 -8 156 9 162 19 6 11 0 12 -88 13
-50 1 -69 -3 -73 -13z"/>
</g>
</svg>
